<svg t="1721120787710" class="icon" viewBox="0 0 1024 1024" version="1.1" xmlns="http://www.w3.org/2000/svg" p-id="1445" width="200" height="200"><path d="M121.904762 828.952381h487.619048v73.142857H121.904762z m0-146.285714h780.190476v73.142857H121.904762z m0-146.285715h780.190476v73.142858H121.904762z m85.284571-77.653333h59.489524V224.841143h85.284572v-48.761905H121.904762v48.761905h85.284571v233.886476z m194.657524-248.783238c17.724952 0 32.304762-14.09219 32.304762-31.719619 0-17.846857-14.57981-31.939048-32.304762-31.939048s-32.49981 14.09219-32.499809 31.939048c0 17.627429 14.774857 31.719619 32.499809 31.719619z m-28.964571 248.783238h57.539047V243.078095h-57.539047v215.673905z m183.05219 0.780191a160.914286 160.914286 0 0 0 28.769524-2.53562v-42.52038c-5.534476 0.585143-9.48419 0.975238-16.969143 0.975238-19.504762 0-27.769905-8.606476-27.769905-27.989334v-101.278476h44.714667V243.053714h-44.714667V191.536762h-58.099809v51.516952H448.365714v43.105524h33.499429v114.395429c0 41.935238 21.26019 58.953143 74.069333 58.953143z m55.978667-0.780191h57.514667V160.597333h-57.539048v298.130286z m189.927619 4.510476c63.414857 0 91.37981-36.425143 98.084571-63.463619l0.390096-1.950476H846.750476l-0.585143 1.170286c-3.949714 8.216381-17.944381 21.528381-43.154285 21.528381-30.524952 0-49.639619-20.553143-50.224762-56.003048H902.095238v-17.846857c0-65.219048-39.399619-108.324571-102.643809-108.324572-63.21981 0-103.594667 44.080762-103.594667 112.64v0.195048c0 69.144381 39.984762 112.054857 105.984 112.054857z m-1.389714-181.979428c25.014857 0 42.934857 16.067048 46.494476 47.396571H753.371429c3.559619-30.549333 22.064762-47.396571 47.079619-47.396571z" p-id="1446" fill="#555555"></path></svg>