<svg t="1712488144452" class="icon" viewBox="0 0 1024 1024" version="1.1" xmlns="http://www.w3.org/2000/svg" p-id="1469" width="200" height="200">
  <path d="M1010.80577 455.530292a29.72694 29.72694 0 0 1 0 42.037895L758.668226 749.785575a29.714963 29.714963 0 0 1-42.017934-42.027914l252.137544-252.227369a29.720951 29.720951 0 0 1 42.017934 0zM758.668226 203.312904l252.137544 252.217388a29.717957 29.717957 0 0 1-42.017934 42.037895l-252.137544-252.207407a29.721949 29.721949 0 0 1 42.017934-42.047876zM27.945419 447.20655h955.693411a20.460039 20.460039 0 0 1 20.460039 20.460039v18.254347a20.460039 20.460039 0 0 1-20.460039 20.460039H27.945419A20.460039 20.460039 0 0 1 7.48538 485.920936v-18.254347a20.460039 20.460039 0 0 1 20.460039-20.460039z" fill="#555555" p-id="1470">
  </path>
</svg>