<svg class="icon" viewBox="0 0 1024 1024" version="1.1" xmlns="http://www.w3.org/2000/svg" p-id="29627" width="32" height="32"><path d="M821.9 442.3c15.6 0 29.6-9.4 35.6-23.8s2.7-31-8.3-42L672.8 200.1c-5.8-5.8-15.3-5.8-21.1 0l-33.4 33.4c-5.8 5.8-5.8 15.3 0 21.1l110.6 110.6H170.6c-8.2 0-14.8 6.6-14.8 14.8v47.5c0 8.1 6.6 14.8 14.8 14.8h651.3z m29.8 139H200.6c-15.6 0-29.6 9.4-35.6 23.8s-2.7 31 8.3 42l176.4 176.4c5.8 5.8 15.3 5.8 21.1 0l33.4-33.4c5.8-5.8 5.8-15.3 0-21.1L293.6 658.4h558.1c8.3 0 14.9-6.7 14.9-14.9v-47.1c0.1-8.4-6.6-15.1-14.9-15.1z m0 0"></path></svg>