<svg t="1720009037664" class="icon" viewBox="0 0 1024 1024" version="1.1" xmlns="http://www.w3.org/2000/svg" p-id="4452" width="200" height="200"><path d="M512.042667 938.666667C382.762667 938.666667 128 773.12 128 573.397333V226.474667c0-19.626667 17.066667-35.84 37.546667-35.84 130.986667 0 250.88-35.413333 320.469333-96a38.826667 38.826667 0 0 1 50.346667 0c71.253333 60.586667 191.146667 96 322.176 96 20.48 0 37.546667 16.213333 37.546666 35.84v346.88c0 199.765333-254.72 365.312-384 365.312z m-308.906667-365.269334c0 160.426667 224.426667 293.973333 308.906667 293.973334 84.48 0 308.949333-133.546667 308.949333-293.973334V260.181333c-121.6-5.546667-232.106667-39.253333-308.906667-94.293333-76.842667 55.04-187.349333 88.746667-308.992 94.293333v313.173334z" fill="#555555" p-id="4453"></path><path d="M466.090667 580.565333c0.341333 2.645333 0.469333 5.162667 0.426666 7.637334a13.738667 13.738667 0 0 1-1.706666 6.4 11.392 11.392 0 0 1-5.034667 4.48 21.461333 21.461333 0 0 1-9.429333 1.706666c-5.589333 0.170667-9.386667-1.109333-11.392-3.84a29.952 29.952 0 0 1-4.352-13.226666l-12.586667-94.72c-0.725333-4.010667-1.749333-6.058667-3.157333-6.058667-1.408 0-2.730667 2.048-3.925334 6.058667l-29.44 100.778666a17.237333 17.237333 0 0 1-4.266666 7.978667c-2.048 2.005333-5.845333 3.029333-11.434667 3.029333a34.048 34.048 0 0 1-7.338667-0.64 11.776 11.776 0 0 1-4.736-2.133333 9.344 9.344 0 0 1-2.773333-3.413333 30.762667 30.762667 0 0 1-1.706667-4.821334c-5.034667-16.981333-10.069333-33.706667-15.061333-50.261333-4.992-16.554667-9.941333-33.28-14.848-50.261333-1.194667-4.181333-2.474667-6.314667-3.797333-6.314667-1.28 0-2.304 2.133333-2.986667 6.314667l-12.373333 92.885333a27.946667 27.946667 0 0 1-5.12 14.08c-2.56 3.029333-7.125333 4.565333-13.781334 4.565333-5.418667 0-9.173333-1.536-11.264-4.608-2.133333-3.029333-2.56-8.234667-1.28-15.616l22.528-148.778666a22.357333 22.357333 0 0 1 6.954667-14.165334 20.437333 20.437333 0 0 1 14.08-4.992 23.466667 23.466667 0 0 1 14.122667 4.224c3.84 2.773333 6.997333 8.362667 9.472 16.768l29.866666 109.696 29.184-110.208c2.261333-8.234667 5.376-13.653333 9.301334-16.384a23.68 23.68 0 0 1 13.781333-4.096c5.077333 0 9.642667 1.706667 13.781333 5.12 4.096 3.413333 6.698667 8.362667 7.722667 14.848l22.613333 147.968zM550.314667 415.274667c13.653333 0 25.429333 2.304 35.328 6.954666 9.856 4.608 18.005333 11.008 24.405333 19.157334 6.4 8.106667 11.093333 17.749333 14.165333 28.842666 3.029333 11.093333 4.565333 23.125333 4.565334 36.096 0 13.824-1.578667 26.368-4.693334 37.632a79.914667 79.914667 0 0 1-14.464 29.013334c-6.442667 8.064-14.506667 14.250667-24.149333 18.645333-9.6 4.352-20.906667 6.528-33.834667 6.528h-49.834666c-6.144 0-10.026667-0.981333-11.690667-2.986667-1.706667-2.005333-2.517333-4.949333-2.517333-8.789333v-159.317333c0-3.84 0.810667-6.741333 2.389333-8.789334 1.578667-2.005333 5.504-2.986667 11.818667-2.986666h48.512z m-28.586667 155.605333h29.909333c28.714667 0 43.050667-21.76 43.050667-65.365333 0-9.941333-0.810667-18.858667-2.389333-26.752-1.578667-7.850667-4.266667-14.506667-8.106667-19.797334a36.778667 36.778667 0 0 0-15.232-12.202666 59.008 59.008 0 0 0-23.893333-4.224h-23.338667v128.341333zM690.176 480.085333c2.133333-0.341333 4.096-0.64 5.930667-0.810666 1.834667-0.170667 4.949333-0.256 9.301333-0.256 8.96 0 16.981333 1.408 24.149333 4.224a50.901333 50.901333 0 0 1 30.037334 30.933333c2.730667 7.381333 4.096 15.573333 4.096 24.704a62.976 62.976 0 0 1-17.450667 43.562667 60.586667 60.586667 0 0 1-19.584 13.653333 57.514667 57.514667 0 0 1-24.661333 4.693333 67.84 67.84 0 0 1-26.752-4.693333 57.045333 57.045333 0 0 1-20.992-16.810667 15.104 15.104 0 0 1-5.12-10.112c-0.256-3.754667 1.621333-8.448 5.632-14.08a10.112 10.112 0 0 1 6.314666-3.754666c2.773333-0.64 5.674667 0.64 8.661334 3.797333 4.181333 4.522667 9.258667 8.234667 15.189333 11.008 5.973333 2.816 11.221333 4.224 15.786667 4.224 4.693333 0 8.917333-1.066667 12.586666-3.157333a31.658667 31.658667 0 0 0 9.301334-8.021334 36.309333 36.309333 0 0 0 7.722666-21.376c0-8.96-2.304-15.957333-6.954666-21.12-4.608-5.162667-11.733333-7.765333-21.333334-7.765333-4.266667 0-7.850667 0.085333-10.922666 0.298667a70.058667 70.058667 0 0 0-8.277334 0.896 32.341333 32.341333 0 0 0-12.586666 5.12 8.832 8.832 0 0 1-4.992 1.578666 8.234667 8.234667 0 0 1-4.864-1.578666 9.770667 9.770667 0 0 1-3.413334-4.693334 15.36 15.36 0 0 1-0.384-7.893333l10.752-72.704a23.381333 23.381333 0 0 1 4.096-10.88c1.834667-2.176 5.290667-3.285333 10.368-3.285333h68.48c5.418667 0 8.106667 5.077333 8.106667 15.232s-2.688 15.189333-8.106667 15.189333h-55.125333l-4.992 33.877333z" fill="#555555" p-id="4454"></path></svg>