<svg t="1727062980922" class="icon" viewBox="0 0 1024 1024" version="1.1" xmlns="http://www.w3.org/2000/svg" p-id="1474" width="200" height="200"><path d="M676.571429 128v182.857143h-73.142858v-109.714286h-438.857142v438.857143h109.714285v73.142857h-182.857143v-585.142857h585.142858z" fill="#8a8a8a" p-id="1475"></path><path d="M676.571429 347.428571c0 12.653714 1.609143 24.868571 4.608 36.571429H347.428571v73.142857l378.697143 0.036572a146.541714 146.541714 0 0 0 133.339429 31.926857L859.428571 896h-585.142857v-585.142857h406.893715c-2.998857 11.702857-4.608 23.954286-4.608 36.571428z m109.714285 182.857143h-438.857143v292.571429h438.857143v-292.571429z" fill="#8a8a8a" p-id="1476"></path><path d="M822.857143 237.714286a109.714286 109.714286 0 1 1 0 219.428571 109.714286 109.714286 0 0 1 0-219.428571z m36.571428 54.857143l-36.571428 36.571428-36.571429-36.571428-17.225143 17.225142 36.571429 36.571429-36.571429 36.571429 17.225143 17.261714 36.571429-36.571429 36.571428 36.571429 17.225143-17.261714-36.571428-36.571429 36.571428-36.571429-17.188571-17.225142z" fill="#8a8a8a" p-id="1477"></path></svg>