<svg t="1720019853874" class="icon" viewBox="0 0 994 912" version="1.1" xmlns="http://www.w3.org/2000/svg" p-id="1774" width="400" height="400"><path d="M712.861538 86.646154c52.512821 0 102.4 27.569231 128.656411 72.205128l154.91282 262.564103c26.25641 44.635897 26.25641 99.774359 0 145.723077L840.205128 828.389744c-26.25641 44.635897-74.830769 72.205128-128.65641 72.205128H403.035897c-52.512821 0-102.4-27.569231-128.65641-72.205128l-154.91282-262.564103c-26.25641-44.635897-26.25641-99.774359 0-145.723077l154.91282-262.564102c26.25641-44.635897 74.830769-72.205128 128.65641-72.205129h309.825641z m-158.851282 116.841025c-43.323077 0-81.394872 38.071795-107.651282 97.148718-64.328205-7.876923-116.841026 6.564103-137.846153 44.635898-21.005128 38.071795-7.876923 90.584615 31.507692 144.410256-39.384615 53.825641-52.512821 106.338462-31.507692 144.410257 21.005128 38.071795 73.517949 52.512821 137.846153 44.635897 26.25641 60.389744 64.328205 97.148718 107.651282 97.148718s81.394872-38.071795 107.651282-97.148718c64.328205 7.876923 116.841026-6.564103 137.846154-44.635897 21.005128-38.071795 7.876923-90.584615-31.507692-144.410257 39.384615-53.825641 52.512821-106.338462 31.507692-144.410256-21.005128-38.071795-73.517949-52.512821-137.846154-44.635898-26.25641-59.076923-64.328205-97.148718-107.651282-97.148718z m0 446.358975c26.25641 10.502564 52.512821 18.379487 77.456411 23.630769-19.692308 43.323077-47.261538 70.892308-77.456411 70.892308-30.194872 0-56.451282-27.569231-77.45641-70.892308 24.94359-3.938462 51.2-11.815385 77.45641-23.630769zM748.307692 514.625641c28.882051 40.697436 38.071795 77.45641 23.63077 103.712821-14.441026 26.25641-51.2 36.758974-99.774359 31.507692 7.876923-24.94359 14.441026-52.512821 18.379487-81.394872 23.630769-17.066667 42.010256-35.446154 57.764102-53.825641z m-389.907692 0c15.753846 18.379487 35.446154 36.758974 56.451282 53.825641 3.938462 28.882051 10.502564 56.451282 18.379487 81.394872-47.261538 5.251282-84.020513-5.251282-98.461538-31.507692-14.441026-26.25641-3.938462-64.328205 23.630769-103.712821z m94.523077 81.394872c9.189744 6.564103 19.692308 13.128205 30.194872 19.692308 10.502564 6.564103 19.692308 11.815385 30.194872 15.753846-15.753846 5.251282-32.820513 10.502564-47.261539 13.128205-6.564103-14.441026-10.502564-31.507692-13.128205-48.574359z m202.174359 0c-3.938462 18.379487-7.876923 34.133333-13.128205 49.887179-15.753846-2.625641-31.507692-7.876923-48.574359-13.128205 10.502564-5.251282 21.005128-10.502564 30.194872-17.066666 11.815385-6.564103 22.317949-13.128205 31.507692-19.692308z m-101.08718-231.05641c18.379487 7.876923 36.758974 17.066667 55.138462 28.882051 18.379487 11.815385 36.758974 23.630769 52.51282 35.446154 2.625641 19.692308 3.938462 40.697436 3.938462 61.702564s-1.312821 42.010256-3.938462 61.702564c-17.066667 13.128205-34.133333 24.94359-53.825641 35.446154-18.379487 10.502564-36.758974 19.692308-55.138461 27.569231-18.379487-7.876923-36.758974-17.066667-55.138462-27.569231-18.379487-11.815385-36.758974-23.630769-52.51282-35.446154-2.625641-19.692308-3.938462-40.697436-3.938462-61.702564s1.312821-42.010256 3.938462-61.702564c17.066667-11.815385 34.133333-24.94359 53.825641-35.446154 18.379487-11.815385 36.758974-21.005128 55.138461-28.882051z m0 77.45641c-26.25641 0-48.574359 21.005128-48.574359 47.261538s21.005128 47.261538 48.574359 47.261539c26.25641 0 48.574359-21.005128 48.574359-47.261539-1.312821-26.25641-22.317949-47.261538-48.574359-47.261538z m-143.097435 14.441025c0 10.502564-1.312821 22.317949-1.312821 32.820513 0 11.815385 1.312821 22.317949 1.312821 34.133334-11.815385-10.502564-23.630769-22.317949-32.820513-34.133334 9.189744-10.502564 21.005128-22.317949 32.820513-32.820513z m286.194871 0c11.815385 10.502564 23.630769 22.317949 32.820513 34.133334-9.189744 11.815385-21.005128 22.317949-32.820513 32.820513 1.312821-10.502564 1.312821-22.317949 1.312821-32.820513-1.312821-11.815385-1.312821-23.630769-1.312821-34.133334z m-143.097436 17.066667c9.189744 0 15.753846 6.564103 15.753847 15.753846s-6.564103 15.753846-15.753847 15.753846S538.25641 498.871795 538.25641 489.682051c0-7.876923 6.564103-15.753846 15.753846-15.753846z m-119.466666-144.410256c-7.876923 24.94359-14.441026 52.512821-18.379487 81.394872-21.005128 17.066667-40.697436 35.446154-56.451282 53.825641-28.882051-39.384615-38.071795-77.45641-23.63077-103.712821 14.441026-26.25641 51.2-35.446154 98.461539-31.507692z m337.394872 31.507692c14.441026 26.25641 5.251282 64.328205-23.63077 103.712821-15.753846-18.379487-35.446154-36.758974-56.451282-53.825641-3.938462-28.882051-10.502564-56.451282-18.379487-81.394872 47.261538-3.938462 84.020513 5.251282 98.461539 31.507692z m-307.2-26.25641c15.753846 2.625641 31.507692 7.876923 48.574359 13.128205-10.502564 5.251282-21.005128 10.502564-30.194872 17.066667-10.502564 6.564103-21.005128 13.128205-30.194872 19.692307 2.625641-18.379487 6.564103-34.133333 11.815385-49.887179z m177.230769 0c5.251282 14.441026 9.189744 31.507692 13.128205 49.887179-9.189744-6.564103-19.692308-13.128205-30.194872-19.692307-10.502564-6.564103-19.692308-11.815385-30.194872-15.753847 17.066667-6.564103 32.820513-11.815385 47.261539-14.441025z m-87.958975-99.774359c30.194872 0 56.451282 27.569231 77.456411 70.892307-24.94359 5.251282-51.2 13.128205-77.456411 23.63077-26.25641-10.502564-52.512821-18.379487-77.45641-23.63077 19.692308-43.323077 47.261538-70.892308 77.45641-70.892307z" p-id="1775" fill="#555555"></path></svg>