<svg t="1720008556565" class="icon" viewBox="0 0 1024 1024" version="1.1" xmlns="http://www.w3.org/2000/svg" p-id="7919" width="200" height="200"><path d="M730.556585 682.149341c52.127186 8.559866 78.526773 29.759535 78.526773 63.071015 0 35.807441-37.431415 63.871002-85.206669 63.871002-45.271293 0-81.806722-25.423603-85.038671-59.143076a21.303667 21.303667 0 0 1 19.159701-23.207637c11.671818-1.447977 22.103655 7.407884 23.247637 19.1597 0.815987 8.599866 17.423728 20.607678 42.631333 20.607678 25.6316 0 42.623334-12.8158 42.623334-21.287667 0-6.3919-7.447884-15.247762-42.83933-21.079671l-2.807956-22.063655-3.407947 20.991672c-52.247184-8.511867-78.69477-29.719536-78.69477-63.063015 0-35.807441 37.439415-63.871002 85.214668-63.871002 45.263293 0 81.798722 25.423603 85.038671 59.143076a21.303667 21.303667 0 0 1-19.1677 23.207638c-11.367822 1.535976-22.095655-7.407884-23.247637-19.159701-0.807987-8.599866-17.415728-20.567679-42.623334-20.567679-25.639599 0-42.631334 12.8158-42.631334 21.295668 0 5.231918 5.583913 14.943767 42.927329 21.039671l6.295902 1.055983z m287.227512 92.878549a21.327667 21.327667 0 0 1-17.079733 34.063468 21.271668 21.271668 0 0 1-17.031734-8.519867l-46.839268-62.471024-46.839268 62.479024a21.263668 21.263668 0 0 1-29.807534 4.255933 21.319667 21.319667 0 0 1-4.303933-29.807534l54.335151-72.438868-54.295152-72.34287a21.327667 21.327667 0 0 1 4.303933-29.807534 21.239668 21.239668 0 0 1 29.807534 4.255934l46.799269 62.383025 46.799269-62.383025a21.279668 21.279668 0 0 1 29.807534-4.255934 21.319667 21.319667 0 0 1 4.295933 29.807534l-54.287152 72.34287 54.335151 72.438868zM574.879018 596.166685a21.295667 21.295667 0 0 1 21.279667 21.295667v127.750004c0 35.21545-28.655552 63.871002-63.871002 63.871002s-63.871002-28.655552-63.871002-63.871002a21.303667 21.303667 0 0 1 42.583335 0 21.327667 21.327667 0 0 0 21.295667 21.287667 21.327667 21.327667 0 0 0 21.287667-21.287667v-127.758004a21.303667 21.303667 0 0 1 21.295668-21.279667z m170.325338-42.583335a21.303667 21.303667 0 0 1-21.287667-21.287667V42.599334H298.083342V276.811675a21.303667 21.303667 0 0 1-21.287667 21.295667H42.591335v681.325354H723.916689V872.96236a21.303667 21.303667 0 0 1 42.583334 0v127.758004a21.303667 21.303667 0 0 1-21.287667 21.279667H21.303667A21.303667 21.303667 0 0 1 0.008 1000.720364V276.811675c0-2.855955 0.559991-5.623912 1.663974-8.223872 0.503992-1.27998 1.487977-2.255965 2.255965-3.407946 0.767988-1.151982 1.319979-2.471961 2.295964-3.447947L261.723911 6.231903c1.023984-1.023984 2.383963-1.615975 3.575944-2.383963 1.103983-0.719989 2.039968-1.663974 3.279948-2.167966 2.55996-1.063983 5.359916-1.663974 8.215872-1.663974h468.408681a21.303667 21.303667 0 0 1 21.295667 21.295667v510.992016a21.303667 21.303667 0 0 1-21.295667 21.287667z m-489.696348-298.075342V72.702864L72.694864 255.516008h182.813144z" fill="#555555" p-id="7920"></path></svg>